# xmcd CD database file
#
# Track frame offsets:
#	183
#	15198
#	22195
#	38473
#	57410
#	75888
#	95113
#	117680
#	137530
#	158188
#
# Disc length: 2334 seconds
#
# Revision: 2
# Processed by: cddbd v1.4PL0 Copyright (c) Steve Scherf et al.
# Submitted via: CDex 1.40Release
#
DISCID=74091c0a
DTITLE=Eric Burdon - I used to be an animal
DYEAR=1992
DGENRE=Blues
TTITLE0=I used to be an animal
TTITLE1=The dream
TTITLE2=American dream
TTITLE3=Going back to Memphis
TTITLE4=Leo's Place
TTITLE5=Run for your life
TTITLE6=Don't give a damn
TTITLE7=Living in fear
TTITLE8=I will be with you again
TTITLE9=Sixteen tons
EXTD=YEAR: 1992 ID3G: 0
EXTT0=
EXTT1=
EXTT2=
EXTT3=
EXTT4=
EXTT5=
EXTT6=
EXTT7=
EXTT8=
EXTT9=
PLAYORDER=
